<svg xmlns="http://www.w3.org/2000/svg" viewBox="0 0 600 800" width="600" height="800">
  <rect x="0" y="0" width="600" height="800" rx="28" fill="#EEF1F5"/>
  <g fill="#A9B0BE" stroke="#EEF1F5" stroke-width="10">
    <path d="M190 560 L190 360 C190 300 238 288 300 288 C362 288 410 300 410 360 L410 560 Z"/>
    <circle cx="300" cy="210" r="94"/>
  </g>
  <g fill="#BEC4D0" stroke="#EEF1F5" stroke-width="10">
    <path d="M78 612 L78 440 C78 392 113 378 156 378 C199 378 234 392 234 440 L234 612 Z"/>
    <circle cx="156" cy="330" r="66"/>
  </g>
  <g fill="#BEC4D0" stroke="#EEF1F5" stroke-width="10">
    <path d="M366 612 L366 440 C366 392 401 378 444 378 C487 378 522 392 522 440 L522 612 Z"/>
    <circle cx="444" cy="330" r="66"/>
  </g>
  <g font-family="'Malgun Gothic','맑은 고딕','Noto Sans KR','Noto Sans CJK KR','Apple SD Gothic Neo',sans-serif" font-weight="700" fill="#39404F">
    <rect x="243" y="571" width="114" height="57" rx="14" fill="#DBE0EA"/><text x="300" y="614" text-anchor="middle" font-size="38">삼성</text>
    <rect x="120" y="637" width="72" height="48" rx="14" fill="#DBE0EA"/><text x="156" y="673" text-anchor="middle" font-size="32">SK</text>
    <rect x="388" y="636" width="111" height="48" rx="14" fill="#DBE0EA"/><text x="444" y="672" text-anchor="middle" font-size="32">NVDA</text>
  </g>
</svg>